STARTFONT 2.1
COMMENT
COMMENT Converted from OpenType font "Font 90 Icons.ttf" by "otf2bdf 3.0".
COMMENT
FONT -FreeType-Font 90 Icons-Medium-R-Normal--28-200-100-100-P-106-ISO10646-1
SIZE 20 100 100
FONTBOUNDINGBOX 30 29 0 -6
STARTPROPERTIES 19
FOUNDRY "FreeType"
FAMILY_NAME "Font 90 Icons"
WEIGHT_NAME "Medium"
SLANT "R"
SETWIDTH_NAME "Normal"
ADD_STYLE_NAME ""
PIXEL_SIZE 28
POINT_SIZE 200
RESOLUTION_X 100
RESOLUTION_Y 100
SPACING "P"
AVERAGE_WIDTH 106
CHARSET_REGISTRY "ISO10646"
CHARSET_ENCODING "1"
FONT_ASCENT 23
FONT_DESCENT 5
COPYRIGHT "Typeface © (el-harrak.blogspot.com). <darrati10@gmail.com>. All Rights Reserved"
_OTF_FONTFILE "Font 90 Icons.ttf"
_OTF_PSNAME "Font 90 Icons"
ENDPROPERTIES
CHARS 242
STARTCHAR 0000
ENCODING 0
SWIDTH 0 0
DWIDTH 0 0
BBX 0 0 0 0
BITMAP
ENDCHAR
STARTCHAR 001D
ENCODING 29
SWIDTH 0 0
DWIDTH 0 0
BBX 0 0 0 0
BITMAP
ENDCHAR
STARTCHAR 0020
ENCODING 32
SWIDTH 252 0
DWIDTH 7 0
BBX 0 0 0 0
BITMAP
ENDCHAR
STARTCHAR 0021
ENCODING 33
SWIDTH 972 0
DWIDTH 27 0
BBX 27 27 0 -5
BITMAP
007FE000
01FFB800
07FFCC00
0FFFE200
1FFFF100
3FF1F080
3FF1F080
7FF1F040
7FFBF040
7FFFE020
FFFFE020
FFFFC020
FFFF0020
FFE00020
FFC00020
FF800020
7F000020
7F000040
7E0E0040
3E0E00C0
3E0E0080
1F000100
0F000200
07800400
03C01800
00F9E000
00040000
ENDCHAR
STARTCHAR 0022
ENCODING 34
SWIDTH 972 0
DWIDTH 27 0
BBX 27 22 0 -2
BITMAP
003F8000
007FC000
00604000
00604000
7FFFFFC0
FFFFFFE0
FFFFFFE0
FFFFFFE0
FFFFFFE0
FFFFFFE0
FFFFFFE0
FFFFFFE0
FFFFFFE0
FFFFFFE0
FFFFFFE0
FFFFFFE0
FFFFFFE0
FFFFFFE0
FFFFFFE0
FFFFFFE0
7FFFFFE0
7FFFFFC0
ENDCHAR
STARTCHAR 0023
ENCODING 35
SWIDTH 972 0
DWIDTH 27 0
BBX 25 28 1 -6
BITMAP
01F80000
E7FF0000
EFFFE200
EFFFFF00
6FFFFF00
7FFFFF00
77FFFF00
77FFFF00
77FFFF00
77FFFF00
37FFFF80
3BFFFF80
3BFFFF80
3BC0FF80
3B001F80
3A000780
1C000000
1C000000
1C000000
1C000000
1C000000
0C000000
0E000000
0E000000
0E000000
0E000000
0E000000
07000000
ENDCHAR
STARTCHAR 0024
ENCODING 36
SWIDTH 972 0
DWIDTH 27 0
BBX 27 27 0 -5
BITMAP
1E000000
3F000000
7F800000
FFC00000
FFE00000
FFF00000
7FF80000
3FF60000
1FEF0000
0FDF8000
07BF0000
037E0000
02FC0000
01FE0000
00F30000
00618000
0040C000
00006000
00003000
00001800
00000800
00000400
00000200
00000100
00000080
00000040
00000020
ENDCHAR
STARTCHAR 0025
ENCODING 37
SWIDTH 972 0
DWIDTH 27 0
BBX 26 28 1 -5
BITMAP
001C0000
003E0000
003E0000
00FFC000
03FFE000
07FFF800
7FDCFF80
FF1C7F80
FE1C1F80
FF083F80
3F087F00
7FC8FF00
78FF8700
783E0700
783E0700
787F8700
7FCDFF00
3F8CFF00
7F0C7F80
FE1C3F80
FF1C3FC0
FF9CFF80
07FFF800
03FFF000
01FFC000
003E0000
003E0000
001C0000
ENDCHAR
STARTCHAR 0026
ENCODING 38
SWIDTH 972 0
DWIDTH 27 0
BBX 27 27 0 -5
BITMAP
007FE000
01E0F800
07001C00
0E1F0600
187FE300
11FFF180
33FFF880
67FFFCC0
677FFC40
4FBF9E60
CFDF3E60
CFEE7E60
CFF4FF20
CFF9FF20
CFF9FE60
CFFFFE60
4FFFFE60
67FFFE40
67FFFCC0
33FFF880
31FFF180
18FFE300
0C1F8600
07001C00
01E07800
00FFE000
00040000
ENDCHAR
STARTCHAR 0027
ENCODING 39
SWIDTH 972 0
DWIDTH 27 0
BBX 27 27 0 -5
BITMAP
03FE0000
07FF8000
1FFFC000
1FFFE000
3E03F000
7C31F000
7870F800
78707800
F0707800
F3FF7800
F3FF7800
F0707800
78707800
7870F800
7C31F000
3E03F000
3FFFF800
1FFFFC00
07FFFE00
03FFFF00
0060FF80
00007FC0
00003FE0
00001FE0
00000FE0
000007C0
00000180
ENDCHAR
STARTCHAR 0028
ENCODING 40
SWIDTH 972 0
DWIDTH 27 0
BBX 27 28 0 -5
BITMAP
00780000
03FF0000
0FFF8000
1FFFC000
3FDFE000
3E03F000
7C01F000
7800F800
F8007800
F1FC7800
F3FF7800
F3FE7800
F0007800
78007800
7800F800
7C01F000
3F03F800
1FFFFC00
1FFFFE00
07FFFF00
03FFFF80
0000FFC0
00007FC0
00003FE0
00001FE0
00000FE0
000007C0
00000180
ENDCHAR
STARTCHAR 0029
ENCODING 41
SWIDTH 972 0
DWIDTH 27 0
BBX 27 20 0 -1
BITMAP
7FFFFFE0
FFFFFFE0
F00001E0
F80003A0
DC000720
CE000E20
C7001C20
C3803820
C1C07020
C0E0E020
C071E020
C0FBF020
C19F3820
C3061C20
C6000E20
CC000720
D80003A0
F00001E0
E00000E0
FFFFFFE0
ENDCHAR
STARTCHAR 002A
ENCODING 42
SWIDTH 972 0
DWIDTH 27 0
BBX 24 29 2 -6
BITMAP
003800
003800
003800
003800
003800
003800
003800
0E38E0
0FBBE0
07FFC0
03FF80
7DFF7C
7EFEFC
BF7DFB
DFBBF7
FFC7EF
FFFFDF
FFFFBF
FFFF7F
FFFEFF
FE7CFF
FDBB7F
FBE7BF
F7FFDF
FFFFEF
FFFFF7
FFFFFB
7FFFFC
7FFFFC
ENDCHAR
STARTCHAR 002B
ENCODING 43
SWIDTH 972 0
DWIDTH 27 0
BBX 27 27 0 -5
BITMAP
FFFFFFE0
FFFFFFE0
FFFFFFE0
E07FC0E0
E0FFE0E0
E0FFF0E0
E07FC0E0
E03F80E0
FC7FC6E0
FEFFEFE0
FFFFFFE0
FFFFFFE0
FFFFFFE0
FFFFFFE0
FFFFFFE0
FFFFFFE0
FEFFEFE0
FC7FC6E0
E43F82E0
E07FC0E0
E0FFF0E0
E0FFE0E0
E07FC0E0
FFFFFFE0
FFFFFFE0
FFFFFFE0
FFFFFFE0
ENDCHAR
STARTCHAR 002C
ENCODING 44
SWIDTH 972 0
DWIDTH 27 0
BBX 27 26 0 -4
BITMAP
00007E00
0001FF00
0003FF80
0007FFC0
000FF9E0
001FF1E0
003FFBE0
007FFFE0
00FFFFC0
01FFFFC0
03FFFFC0
077FFFC0
0F3FFF80
1D9FFF00
3CCFFE00
7E67FC00
FF33F800
3F99F000
1FCCE000
0FE7C000
07F38000
03FF0000
01FE0000
00FC0000
00780000
00300000
ENDCHAR
STARTCHAR 002D
ENCODING 45
SWIDTH 972 0
DWIDTH 27 0
BBX 27 27 0 -5
BITMAP
007FC000
01F1F800
07801C00
0E000E00
1C000300
1E006180
3300E180
6181E0C0
60C1E0C0
4023E060
C07FE060
C07FE060
C07FE060
C07FE060
C07FE060
C07FE060
4007E060
6003E040
6001F0C0
3000E9C0
38006D80
18000700
0E000600
07001C00
03E0F800
00FFE000
000C0000
ENDCHAR
STARTCHAR 002E
ENCODING 46
SWIDTH 972 0
DWIDTH 27 0
BBX 23 28 2 -5
BITMAP
3FFFFC
200004
200004
200004
200004
200004
200004
200004
200004
200004
200004
200004
200004
3FFFFC
1FFFFC
000000
3FFFFC
3FFFFC
3FFE0C
3FFFFC
3FFFFC
001800
001800
001800
001800
00FF00
FFFFFE
FFFFFE
ENDCHAR
STARTCHAR 002F
ENCODING 47
SWIDTH 972 0
DWIDTH 27 0
BBX 27 28 0 -5
BITMAP
000E0000
183F8100
187FC300
0C7FC300
CC7FE620
CC7FE660
6E7FE660
667FEEC0
667FEEC0
667FECC0
667FECC0
667FECC0
667FECC0
667FECC0
667FECC0
667FEEC0
667FE660
4C7FE660
CC7FC660
8C3FC320
181F8300
181F0100
101F0100
001F0000
001F0000
001F0000
001F0000
000F0000
ENDCHAR
STARTCHAR 0030
ENCODING 48
SWIDTH 972 0
DWIDTH 27 0
BBX 27 27 0 -5
BITMAP
007FC000
01FFF800
07FFFC00
0FFFFE00
1F7FFF00
1E7FC780
3C3F8380
783F83C0
701F01C0
700F01E0
F01F00E0
E03980E0
E03180E0
FFF0FFE0
FFF1FFE0
FFFFFFE0
7FFEFFE0
7FE0FFC0
7FE07FC0
3FC07FC0
3F803F80
1F803F00
0F803E00
07FFFC00
03FFF800
00FFE000
00070000
ENDCHAR
STARTCHAR 0031
ENCODING 49
SWIDTH 972 0
DWIDTH 27 0
BBX 26 28 1 -5
BITMAP
003F0000
003F0000
003F0000
013F4000
073F7000
0F3F7800
1F3F7C00
3F3F7E00
7E3F1F00
7C3F0F00
F83F0F80
F03F0780
F03F0780
F03F03C0
E03F03C0
E03E03C0
E00003C0
F00003C0
F0000780
F0000780
78000F80
7C001F00
3E003F00
3F007E00
1FF7FC00
0FFFF800
03FFF000
00FFC000
ENDCHAR
STARTCHAR 0032
ENCODING 50
SWIDTH 972 0
DWIDTH 27 0
BBX 26 28 1 -5
BITMAP
001C0000
003E0000
003E0000
003E0000
003E0000
001C0000
F01C0780
FC1C0F80
FE1C1F80
FE083F80
3F087E00
0FC8F800
00FF8000
003E0000
003E0000
007F8000
07CDF800
3F8CFE00
7F0C7F80
FE1C3F80
FC1C1FC0
F01C0780
001E0000
001E0000
003E0000
003E0000
003E0000
001C0000
ENDCHAR
STARTCHAR 0033
ENCODING 51
SWIDTH 972 0
DWIDTH 27 0
BBX 27 26 0 -4
BITMAP
00040000
00040000
00060000
000E0000
000F0000
001F0000
001F8000
003F8000
003FC000
0FFFFE00
FFFFFFE0
3FFFFFC0
1FFFFF80
0FFFFF00
07FFFE00
03FFFC00
01FFF000
01FFF800
01FFF800
03FFF800
03FFF800
03FFF800
03F0F800
03C07C00
03001C00
04000400
ENDCHAR
STARTCHAR 0034
ENCODING 52
SWIDTH 972 0
DWIDTH 27 0
BBX 27 20 0 -1
BITMAP
7FFFFFC0
3FFFFFC0
DFFFFFA0
EFFFFF60
F7FFFEE0
FBFFFDE0
FDFFFBE0
FEFFF7E0
FF7FEFE0
FFBFDFE0
FF9FBFE0
FF6F5FE0
FEF4EFE0
FDFFF7E0
FBFFFBE0
F7FFFDE0
EFFFFEE0
DFFFFF60
BFFFFFA0
7FFFFFC0
ENDCHAR
STARTCHAR 0035
ENCODING 53
SWIDTH 972 0
DWIDTH 27 0
BBX 27 21 0 -2
BITMAP
00040000
000F3C00
0031BC00
006E7C00
019F3C00
037FDC00
0CFFE600
19FFFB00
67FFFCC0
CFFFFE60
0FFFFE00
0FFFFE00
0FE0FE00
0FE0FE00
0FE0FE00
0FE0FE00
0FE0FE00
0FE0FE00
0FE0FE00
0FE0FE00
0FE0FE00
ENDCHAR
STARTCHAR 0036
ENCODING 54
SWIDTH 972 0
DWIDTH 27 0
BBX 27 28 0 -5
BITMAP
0E001C00
0F003E00
1F003E00
0F003C00
04000800
3F807F00
7FE0FF80
FFE0FF80
FFE0FF80
DFE1BEC0
DFE1FEC0
DFE1FFC0
DFE37F60
DFE37F60
DFE3FFE0
DFE0FF80
1F80FF80
1F81FF80
1F81FFC0
1F803600
1F803600
1F803600
1F803600
1F803600
1F803600
1F803600
1F803600
1B803600
ENDCHAR
STARTCHAR 0037
ENCODING 55
SWIDTH 972 0
DWIDTH 27 0
BBX 27 20 0 -1
BITMAP
01FC0000
07DF0000
0F078000
1F07C000
3F07E000
7F07F000
7F8FF000
61FE3800
C1FC1800
C0F81800
C0F81800
C1FC1800
E3FE3800
7F07F000
7F07F000
3F07E000
3F07E000
1F07E0E0
07DFBFC0
03FE1F00
ENDCHAR
STARTCHAR 0038
ENCODING 56
SWIDTH 972 0
DWIDTH 27 0
BBX 21 28 3 -5
BITMAP
FFFFF8
FFFFF8
C00018
C00018
C00018
C00018
C00018
E00038
FFFFF8
FFFFF8
E38618
E38618
E38618
FFFFF8
FFFFF8
FFFFF8
E38618
E38618
E38618
E38F18
FFFFF8
FFFFF8
E38618
E38618
E38618
E38E18
FFFFF8
FFFFF8
ENDCHAR
STARTCHAR 0039
ENCODING 57
SWIDTH 972 0
DWIDTH 27 0
BBX 27 26 0 -4
BITMAP
40000000
E0000000
70000000
38000000
18FFFFE0
0CFFFFC0
0CFFFFC0
06FFFF80
067FFF80
067FFF00
067FFF00
037FFF00
037FFE00
03000000
03000000
03000000
03000000
03FFFF80
01FFFF80
00000000
00800200
03E00F00
03E01F80
03E01F80
03E00F80
01C00700
ENDCHAR
STARTCHAR 003A
ENCODING 58
SWIDTH 972 0
DWIDTH 27 0
BBX 27 27 0 -4
BITMAP
0000FE00
0003FF00
0007FF80
0007F1C0
000FF0C0
000FF0E0
000FF1E0
001FFFE0
000FFFE0
000FFFE0
000FFFC0
0027FFC0
0077FF80
00F3FF00
01FCFE00
03FE0000
07FF0000
0FF80000
1FF80000
3FE00000
7F000000
FF000000
FF000000
FF000000
7C000000
7C000000
18000000
ENDCHAR
STARTCHAR 003B
ENCODING 59
SWIDTH 972 0
DWIDTH 27 0
BBX 27 27 0 -5
BITMAP
00060000
00060000
00060000
00060000
00060000
00060000
00060000
00060000
00060000
00060000
00060000
00060000
FFFFFFE0
FFFFFFE0
00060000
00060000
00060000
00060000
00060000
00060000
00060000
00060000
00060000
00060000
00060000
00060000
00060000
ENDCHAR
STARTCHAR 003C
ENCODING 60
SWIDTH 972 0
DWIDTH 27 0
BBX 27 22 0 -2
BITMAP
00040000
000E0000
000F0000
001F0000
001B8000
003B8000
0071C000
0070E000
00E0E000
00C07000
01C07000
03803800
03801C00
07001C00
06000E00
0E000E00
1C000700
1C000300
38000380
380001C0
700001C0
E00000E0
ENDCHAR
STARTCHAR 003D
ENCODING 61
SWIDTH 972 0
DWIDTH 27 0
BBX 27 27 0 -5
BITMAP
007FC000
01803000
06000C00
0C000600
18000300
33FF8180
20E1C080
60E0E040
40E0E040
40E0E060
C0E0E020
80E1C020
80EF8020
80FE0020
80E70020
C0E38020
40E38060
40E1C040
60E0E040
20E0E080
33F87980
18000100
0C000200
06000C00
03803800
00FFE000
00040000
ENDCHAR
STARTCHAR 003E
ENCODING 62
SWIDTH 972 0
DWIDTH 27 0
BBX 27 27 0 -5
BITMAP
007FC000
01C03000
06000C00
0C000600
18031300
1038F180
20E03080
61C01840
43801840
43800860
C7000020
87000020
87000020
87000020
87000020
C7000020
43800060
43800840
61C01040
20E02080
307FC180
180E0100
0C000200
06000C00
03803800
00FFE000
00040000
ENDCHAR
STARTCHAR 003F
ENCODING 63
SWIDTH 972 0
DWIDTH 27 0
BBX 27 27 0 -5
BITMAP
007FC000
01FFF000
07FFFC00
0FC03E00
1F000F00
1E000780
3C000380
780003C0
700001C0
700001E0
F00000E0
E00000E0
E00000E0
E00000E0
E00000E0
E00000E0
700000E0
700001C0
780001C0
380003C0
3C000780
1E000F00
0F803E00
07F9FC00
03FFF800
00FFE000
00040000
ENDCHAR
STARTCHAR 0040
ENCODING 64
SWIDTH 972 0
DWIDTH 27 0
BBX 27 27 0 -5
BITMAP
00040000
00060000
000E0000
000F0000
001F0000
001F8000
003F8000
003FC000
007FC000
007FE000
00FFE000
00FFF000
01FFF000
01FFF800
03FFF800
03FFFC00
07FFFC00
07FFFE00
0FFFFE00
0FFFFF00
1FFFFF00
1FFFFF80
3FFFFF80
3FFFFFC0
7FFFFFC0
7FFFFFE0
FFFFFFE0
ENDCHAR
STARTCHAR 0041
ENCODING 65
SWIDTH 972 0
DWIDTH 27 0
BBX 27 26 0 -4
BITMAP
80200000
C0300000
E0380000
F83C0000
FC3F0000
FE3F8000
FFBFC000
FFDFF000
FFE7F800
FFFBFC00
FFFDFF00
FFFE7F80
FFFFBFC0
FFFFBFE0
FFFF7F80
FFFCFF00
FFFBFE00
FFF7F800
FFCFF000
FFBFE000
FF3F8000
FC3F0000
F83E0000
F0380000
C0300000
80200000
ENDCHAR
STARTCHAR 0042
ENCODING 66
SWIDTH 972 0
DWIDTH 27 0
BBX 23 28 2 -5
BITMAP
80007E
E0007E
F0007E
FC007E
FF007E
FF807E
FFE07E
FFF87E
FFFC7E
FFFF7E
FFFFFE
FFFFFE
FFFFFE
FFFFFE
FFFFFE
FFFFFE
FFFFFE
FFFFFE
FFFF7E
FFFE7E
FFF87E
FFE07E
FFC07E
FF007E
FC007E
F8007E
E0007E
80007E
ENDCHAR
STARTCHAR 0043
ENCODING 67
SWIDTH 972 0
DWIDTH 27 0
BBX 21 28 3 -5
BITMAP
FF8FF8
FF8FF8
FF8FF8
FF8FF8
FF8FF8
FF8FF8
FF8FF8
FF8FF8
FF8FF8
FF8FF8
FF8FF8
FF8FF8
FF8FF8
FF8FF8
FF8FF8
FF8FF8
FF8FF8
FF8FF8
FF8FF8
FF8FF8
FF8FF8
FF8FF8
FF8FF8
FF8FF8
FF8FF8
FF8FF8
FF8FF8
FF8FF8
ENDCHAR
STARTCHAR 0044
ENCODING 68
SWIDTH 972 0
DWIDTH 27 0
BBX 23 28 2 -5
BITMAP
800000
E00000
F00000
FC0000
FF0000
FF8000
FFE000
FFF800
FFFC00
FFFF00
FFFF80
FFFFE0
FFFFF8
FFFFFC
FFFFFE
FFFFF8
FFFFF0
FFFFC0
FFFF00
FFFE00
FFF800
FFE000
FFC000
FF0000
FC0000
F80000
E00000
800000
ENDCHAR
STARTCHAR 0045
ENCODING 69
SWIDTH 972 0
DWIDTH 27 0
BBX 27 27 0 -5
BITMAP
007FC000
01FFF000
07FFFC00
0FFFFE00
1FFFFF00
1FFFFF80
3FFFFF80
7FF1FFC0
7FC07FC0
7F803FE0
FF001FE0
FF001FE0
FF000FE0
FF000FE0
FF001FE0
FF001FE0
7F801FE0
7FC03FC0
7FE0FFC0
3FFFFF80
3FFFFF80
1FFFFF00
0FFFFE00
07FFFC00
01FFF800
007FE000
00060000
ENDCHAR
STARTCHAR 0046
ENCODING 70
SWIDTH 972 0
DWIDTH 27 0
BBX 27 27 0 -5
BITMAP
FFFFFFE0
FFFFFFE0
FFFFFFE0
FFFFFFE0
FFFFFFE0
FFFFFFE0
FFFFFFE0
FFFFFFE0
FFFFFFE0
FFFFFFE0
FFFFFFE0
FFFFFFE0
FFFFFFE0
FFFFFFE0
FFFFFFE0
FFFFFFE0
FFFFFFE0
FFFFFFE0
FFFFFFE0
FFFFFFE0
FFFFFFE0
FFFFFFE0
FFFFFFE0
FFFFFFE0
FFFFFFE0
FFFFFFE0
FFFFFFE0
ENDCHAR
STARTCHAR 0047
ENCODING 71
SWIDTH 972 0
DWIDTH 27 0
BBX 23 28 2 -5
BITMAP
FC0002
FC0006
FC001E
FC007E
FC00FE
FC03FE
FC0FFE
FC1FFE
FC7FFE
FCFFFE
FFFFFE
FFFFFE
FFFFFE
FFFFFE
FFFFFE
FFFFFE
FFFFFE
FFFFFE
FDFFFE
FC7FFE
FC3FFE
FC0FFE
FC03FE
FC01FE
FC007E
FC001E
FC000E
FC0002
ENDCHAR
STARTCHAR 0048
ENCODING 72
SWIDTH 972 0
DWIDTH 27 0
BBX 27 26 0 -4
BITMAP
00004020
00008060
000380E0
000781E0
000F87E0
003F8FE0
007F9FE0
00FF7FE0
03FEFFE0
07F9FFE0
0FF7FFE0
3FEFFFE0
7F9FFFE0
FFBFFFE0
3FCFFFE0
1FF7FFE0
07FBFFE0
03FCFFE0
01FF7FE0
007FBFE0
003F8FE0
001F87E0
000783E0
000380E0
00018060
00004020
ENDCHAR
STARTCHAR 0049
ENCODING 73
SWIDTH 972 0
DWIDTH 27 0
BBX 27 26 0 -4
BITMAP
E4000000
E7000000
E7800000
E7900000
E7980000
E79E0000
E79F0000
E79FC000
E79FF000
E79FF800
E79FFE00
E79FFF00
E79FFFC0
E79FFFE0
E79FFF80
E79FFE00
E79FFC00
E79FF000
E79FC000
E79F8000
E79E0000
E7980000
E7900000
E7800000
E7000000
E6000000
ENDCHAR
STARTCHAR 004A
ENCODING 74
SWIDTH 972 0
DWIDTH 27 0
BBX 27 26 0 -4
BITMAP
00040000
000E0000
000F0000
001F0000
003F8000
007FC000
007FE000
00FFE000
01FFF000
03FFF800
03FFFC00
07FFFC00
0FFFFE00
1FFFFF00
1FFFFF80
3FFFFF80
7FFFFFC0
FFFFFFE0
00000000
00000000
FFFFFFE0
FFFFFFE0
FFFFFFE0
FFFFFFE0
FFFFFFE0
FFFFFFE0
ENDCHAR
STARTCHAR 004B
ENCODING 75
SWIDTH 972 0
DWIDTH 27 0
BBX 27 28 0 -5
BITMAP
00000100
00000700
00000F00
00000F00
00001E00
00001E00
00003C00
00003C00
00007800
3FFFF800
7FFFF000
FFFFF800
3FFFF800
01FFFC00
0007FC00
0007FE00
000F7F00
000F3F00
001E1F80
001C1F80
003C0FC0
03F807C0
07F803E0
03F801E0
003C00C0
001C0080
00080000
00080000
ENDCHAR
STARTCHAR 004C
ENCODING 76
SWIDTH 972 0
DWIDTH 27 0
BBX 23 29 2 -6
BITMAP
000020
000020
000070
03FF70
0FFFF0
1FFFF8
3FFFF8
7007FC
C003FC
0007FC
000FFE
000FF8
001800
000000
000000
000800
07F000
FFE000
7FE000
7FC002
3FC00C
3FF878
3FFFF0
1FFFE0
1FFFC0
0C0000
0C0000
080000
080000
ENDCHAR
STARTCHAR 004D
ENCODING 77
SWIDTH 972 0
DWIDTH 27 0
BBX 27 23 0 -3
BITMAP
01FF0000
07FFC000
0FFFE000
1F83F000
3E00F800
3C007C00
78003C00
70001E00
F0011E00
F000FFE0
F0007FC0
F0003F80
F0003F00
F0001E00
70000C00
78000400
3C000000
3E008000
1F818000
0FFF8000
07FFC000
01FF0000
00180000
ENDCHAR
STARTCHAR 004E
ENCODING 78
SWIDTH 972 0
DWIDTH 27 0
BBX 27 20 0 -1
BITMAP
00000100
000003C0
000007E0
00000FE0
00001FE0
00003FC0
38007F80
7C00FF00
FE01FE00
FF03FC00
7F87F800
3FCFF000
1FFFE000
0FFFC000
07FF8000
03FF0000
01FE0000
00FC0000
00780000
00300000
ENDCHAR
STARTCHAR 004F
ENCODING 79
SWIDTH 972 0
DWIDTH 27 0
BBX 27 27 0 -5
BITMAP
7F800000
FFF00000
FFFC0000
7FFF0000
3FFF8000
00FFE000
001FF000
0007F800
7F03F800
FFC1FC00
FFF07E00
7FF87F00
3FFE3F00
01FE1F80
007F0F80
003F8FC0
001F87C0
080FC7C0
3F07C7C0
7F87E3E0
7F83E3E0
FF83E3E0
FF83E3E0
7F83E3E0
7F83E3E0
3F01E1E0
08008080
ENDCHAR
STARTCHAR 0050
ENCODING 80
SWIDTH 972 0
DWIDTH 27 0
BBX 25 28 1 -5
BITMAP
007F0000
01FFC000
03FFF000
07FFF800
0FC1F800
1F807C00
1F003C00
1E003E00
3E001E00
3E001E00
3C001E00
3C001E00
3C001E00
FFFFFF80
FFFFFF80
FFFFFF80
FFF3FF80
FFE3FF80
FFE3FF80
FFE3FF80
FFF3FF80
FFE3FF80
FFE3FF80
FFE3FF80
FFE3FF80
FFFFFF80
FFFFFF80
FFFFFF80
ENDCHAR
STARTCHAR 0051
ENCODING 81
SWIDTH 972 0
DWIDTH 27 0
BBX 27 26 0 -4
BITMAP
07FFFC00
07FFFC00
07FFFC00
07FFFC00
07FFFC00
07FFFC00
07FFFC00
07FFFC00
07FFFC00
00060000
00060000
00060000
00060000
00060000
03FFFC00
02000400
02000400
FFF0FFE0
FFF0FFE0
FFF0FFE0
FFF0FFE0
FFF0FFE0
FFF0FFE0
FFF0FFE0
FFF0FFE0
FFF0FFE0
ENDCHAR
STARTCHAR 0052
ENCODING 82
SWIDTH 972 0
DWIDTH 27 0
BBX 27 16 0 1
BITMAP
00300000
00180000
001E0000
0FFF3E00
1FFFBF80
3FFF3FC0
7C1E03C0
701C01E0
F03000E0
F00000E0
F00000E0
700001E0
7C0003C0
3FFFFFC0
1FFFFF80
0FFFFE00
ENDCHAR
STARTCHAR 0053
ENCODING 83
SWIDTH 972 0
DWIDTH 27 0
BBX 27 22 0 -2
BITMAP
00007000
0000F800
0001FC00
0003FE00
FFF7FF00
FFEFFF80
FFDFFFC0
FFFFFFE0
FFBE7BE0
F0107840
F7FF7FE0
F7FF7FE0
EFFF7FE0
EFFF7FC0
EFFF7FC0
DFFF7FC0
DFFF7F80
DFFF7780
DFFF8F80
BFFFFF80
BFFFFF00
3FFFFF00
ENDCHAR
STARTCHAR 0054
ENCODING 84
SWIDTH 972 0
DWIDTH 27 0
BBX 27 27 0 -5
BITMAP
007FC000
01FFF000
07FFFC00
0FFFFE00
1FC07F00
1F001F80
3F800F80
7FC007C0
79E003C0
78F003E0
F87801E0
F03C01E0
F01E01E0
F00F01E0
F00781E0
F003C1E0
7801E3E0
7800F3C0
7C007FC0
3E003F80
3F001F80
1F803F00
0FFBFE00
07FFFC00
01FFF800
00FFE000
000C0000
ENDCHAR
STARTCHAR 0055
ENCODING 85
SWIDTH 972 0
DWIDTH 27 0
BBX 27 24 0 -3
BITMAP
00060000
000E0000
000E0000
001E0000
003E0000
007E0000
00FE0000
FFFE0000
FFFE0000
FFFE0000
FFFE0000
FFFE7FE0
FFFE7FE0
FFFE7FE0
FFFE0000
FFFE0000
FFFE0000
00FE0000
007E0000
003E0000
001E0000
001E0000
000E0000
00060000
ENDCHAR
STARTCHAR 0056
ENCODING 86
SWIDTH 972 0
DWIDTH 27 0
BBX 27 24 0 -3
BITMAP
00020000
00060000
000E0000
001E0000
003E0000
007E0000
00FE0000
FFFE0700
FFFE0700
FFFE0700
FFFE0700
FFFE7FE0
FFFE7FE0
FFFE7FE0
FFFE0700
FFFE0700
FFFE0700
00FE0000
007E0000
003E0000
001E0000
000E0000
000E0000
00060000
ENDCHAR
STARTCHAR 0057
ENCODING 87
SWIDTH 972 0
DWIDTH 27 0
BBX 27 26 0 -4
BITMAP
07803E00
1FE07F80
7FF1FFC0
7FF1FFC0
FFFBFFE0
FFFFFFE0
FFFFFFE0
FFFFFFE0
7FFFFFE0
7FFFFFC0
3FFFFFC0
1FFFFF80
1FFFFF00
0FFFFE00
07FFFC00
03FFF800
01FFF000
00FFF000
007FE000
003FC000
001F8000
000F0000
00060000
00060000
00040000
00040000
ENDCHAR
STARTCHAR 0058
ENCODING 88
SWIDTH 972 0
DWIDTH 27 0
BBX 22 29 3 -6
BITMAP
0E0000
0E0000
0E0000
0E0000
0E0000
0E0000
0E0000
0E0000
0E7000
0E7100
0E7388
0E739C
CF739C
EFFFFC
EFFFFC
EFFFFC
EFFFFC
EFFFFC
FFFFFC
FFFFFC
FFFFFC
FFFFFC
7FFFFC
3FFFFC
3FFFFC
1FFFFC
0FFFFC
0FFFF8
03FFE0
ENDCHAR
STARTCHAR 0059
ENCODING 89
SWIDTH 972 0
DWIDTH 27 0
BBX 21 28 3 -5
BITMAP
007000
007000
027300
077300
077300
077300
077338
077338
077338
077338
077338
077338
077338
677338
E7FFF8
E7FFF8
E7FFF8
E7FFF8
E7FFF8
FFFFF8
7FFFF8
7FFFF8
3FFFF8
3FFFF8
1FFFF8
0FFFF8
0FFFF8
07FFF0
ENDCHAR
STARTCHAR 005A
ENCODING 90
SWIDTH 972 0
DWIDTH 27 0
BBX 27 28 0 -5
BITMAP
00000200
00010300
00030380
00070180
000F0180
001F19C0
003F18C0
007F18C0
007F1CE0
FFFF1CE0
FFFF0CE0
FFFF0CE0
FFFF0CE0
FFFF0CE0
FFFF0CE0
FFFF0CE0
FFFF0CE0
FFFF0CE0
FFFF1CE0
FFFF1CE0
00FF18C0
007F18C0
003F19C0
001F1180
000F0180
00070380
00030300
00010200
ENDCHAR
STARTCHAR 005B
ENCODING 91
SWIDTH 972 0
DWIDTH 27 0
BBX 27 26 0 -4
BITMAP
C0000000
F0000000
FC000000
FF000000
FFC00000
FFF00000
FFFC0000
FFFF0000
FFFFC000
FFFFF000
FFFFFC00
FFFFFF00
FFFFFFC0
FFFFFFE0
FFFFFF00
FFFFFC00
FFFFF000
FFFFC000
FFFF0000
FFFC0000
FFF00000
FFC00000
FF000000
FC000000
F0000000
C0000000
ENDCHAR
STARTCHAR 005C
ENCODING 92
SWIDTH 972 0
DWIDTH 27 0
BBX 27 27 0 -5
BITMAP
FFFFFFE0
7FFFFFC0
3FFFFFC0
3FFFFF80
1FFFFF80
1FFFFF00
0FFFFF00
0FFFFE00
07FFFE00
07FFFC00
03FFFC00
03FFF800
01FFF800
01FFF000
00FFF000
00FFE000
007FE000
007FC000
003FC000
003F8000
001F8000
001F0000
000F0000
000E0000
00060000
00040000
00040000
ENDCHAR
STARTCHAR 005D
ENCODING 93
SWIDTH 972 0
DWIDTH 27 0
BBX 27 27 0 -5
BITMAP
00000020
000000E0
000003E0
00000FE0
00003FE0
0000FFE0
0003FFE0
000FFFE0
003FFFE0
00FFFFE0
03FFFFE0
0FFFFFE0
3FFFFFE0
FFFFFFE0
1FFFFFE0
07FFFFE0
01FFFFE0
007FFFE0
001FFFE0
0007FFE0
0001FFE0
00007FE0
00001FE0
000007E0
000001E0
00000060
00000020
ENDCHAR
STARTCHAR 005E
ENCODING 94
SWIDTH 972 0
DWIDTH 27 0
BBX 27 10 0 4
BITMAP
08000200
08000100
10000100
30000180
7FFFFFC0
FFFFFFE0
300001C0
10000180
08000100
08000200
ENDCHAR
STARTCHAR 005F
ENCODING 95
SWIDTH 972 0
DWIDTH 27 0
BBX 10 28 9 -5
BITMAP
0800
1C00
3E00
7F00
9CC0
1C00
1C00
1C00
1C00
1C00
1C00
1C00
1C00
1C00
1C00
1C00
1C00
1C00
1C00
1C00
1C00
1C00
1C00
9C40
7F80
3F00
1E00
0C00
ENDCHAR
STARTCHAR 0060
ENCODING 96
SWIDTH 972 0
DWIDTH 27 0
BBX 10 28 9 -5
BITMAP
1C00
1C00
1C00
1C00
1C00
1C00
1C00
1C00
1C00
1C00
1C00
1C00
1C00
1C00
1C00
1C00
1C00
1C00
1C00
1C00
1C00
1C00
1C00
9C40
7F80
3F00
1E00
0C00
ENDCHAR
STARTCHAR 0061
ENCODING 97
SWIDTH 972 0
DWIDTH 27 0
BBX 27 15 0 1
BITMAP
00000200
007C0300
01FF8700
07FFE700
0FFFFF00
0FFFFF80
1FFFFF80
3E0FFF80
3003FF80
6000FFC0
4001FFC0
8003FFC0
0007FFE0
000FFFE0
001FFFE0
ENDCHAR
STARTCHAR 0062
ENCODING 98
SWIDTH 972 0
DWIDTH 27 0
BBX 27 15 0 1
BITMAP
08000000
0803C000
0C1FF000
1E7FFC00
1FFFFE00
1FFFFE00
1FFFFF00
3FFE0F80
3FF80180
3FF000C0
3FF00020
7FF80020
7FFC0000
7FFE0000
FFFF0000
ENDCHAR
STARTCHAR 0063
ENCODING 99
SWIDTH 972 0
DWIDTH 27 0
BBX 27 29 0 -6
BITMAP
001F8000
001F8000
001F8000
001F8000
001F8000
001F8000
001F8000
001F8000
001F8000
001F8000
001F8000
001F8000
001F8000
701F81C0
FC1F87E0
FF1F9FE0
7FDFFFE0
7FFFFFC0
3FFFFF80
1FFFFF00
0FFFFE00
07FFFC00
03FFF800
01FFF000
00FFE000
007FC000
003F8000
001F0000
000E0000
ENDCHAR
STARTCHAR 0064
ENCODING 100
SWIDTH 972 0
DWIDTH 27 0
BBX 27 27 0 -4
BITMAP
00000700
00000F80
10001FC0
78003FE0
7C007FE0
FC00FFE0
FE01FFC0
FE03FF80
FE07FF00
FF0FFE00
FF1FFC00
FF3FF800
FFFFF000
FFFFE000
FFFFC000
FFFF8000
FFFF0000
FFFE0000
FFFC0000
FFFF8000
FFFFF000
FFFFFC00
FFFFFF00
FFFFFF80
FFFFFF00
7FFFFF00
3FFFFE00
ENDCHAR
STARTCHAR 0065
ENCODING 101
SWIDTH 972 0
DWIDTH 27 0
BBX 27 27 0 -4
BITMAP
0C000000
1E000000
3F000100
7F8003C0
FFC003E0
7FE007E0
7FF007E0
3FF80FE0
1FFC0FE0
0FFE0FE0
07FF1FE0
03FF9FE0
01FFDFE0
00FFFFE0
007FFFE0
003FFFE0
001FFFE0
000FFFE0
0007FFE0
003FFFE0
01FFFFE0
07FFFFE0
1FFFFFE0
1FFFFFE0
1FFFFFE0
1FFFFFC0
0FFFFF80
ENDCHAR
STARTCHAR 0066
ENCODING 102
SWIDTH 972 0
DWIDTH 27 0
BBX 27 25 0 -3
BITMAP
000C0000
003E0000
007E0000
00FE0000
01FC0000
03FC0000
07F80000
0FF80000
1FF00000
3FF00000
7FFFFFE0
7FFFFFE0
FFFFFFE0
FFFFFFE0
7FFFFFE0
3FFFFFE0
1FF00000
0FF00000
07F80000
03F80000
01FC0000
00FC0000
007E0000
003E0000
001E0000
ENDCHAR
STARTCHAR 0067
ENCODING 103
SWIDTH 972 0
DWIDTH 27 0
BBX 27 25 0 -3
BITMAP
00078000
000FC000
0007E000
0007F000
0007F800
0003FC00
0003FE00
0001FF00
0001FF80
7FFFFFC0
FFFFFFE0
FFFFFFE0
FFFFFFE0
FFFFFFE0
FFFFFFC0
0000FF80
0001FF00
0001FE00
0003FC00
0003F800
0007F000
0007E000
000FC000
00078000
00020000
ENDCHAR
STARTCHAR 0068
ENCODING 104
SWIDTH 972 0
DWIDTH 27 0
BBX 27 28 0 -5
BITMAP
000F0000
001F8000
003FC000
007FE000
00FFF000
01FFF800
03FFFC00
07FFFE00
0FFFFF00
1FFFFF80
3FFFFFC0
7FFFFFE0
FF9FBFE0
FE1F8FE0
781F83E0
201F8000
001F8000
001F8000
001F8000
001F8000
001F8000
001F8000
001F8000
001F8000
001F8000
001F8000
001F8000
001F8000
ENDCHAR
STARTCHAR 0069
ENCODING 105
SWIDTH 972 0
DWIDTH 27 0
BBX 27 28 0 -5
BITMAP
1FFFFC00
7FFFFF00
FFFFFF80
FFFFFF80
FFFFFF80
FFFFFF00
FFFFFC00
FFFFE000
FFFF0000
FFFC0000
FFFE0000
FFFF0000
FFFF8000
FFFFC000
FFFFE000
FF7FF000
FF3FF800
FF1FFC00
FE0FFE00
FE07FF00
FE03FF80
FC01FFC0
FC00FFE0
78007FE0
38003FE0
00001FC0
00000F80
00000200
ENDCHAR
STARTCHAR 006A
ENCODING 106
SWIDTH 972 0
DWIDTH 27 0
BBX 27 28 0 -5
BITMAP
03FFFF80
1FFFFFC0
1FFFFFE0
1FFFFFE0
1FFFFFE0
0FFFFFE0
03FFFFE0
007FFFE0
000FFFE0
0007FFE0
000FFFE0
001FFFE0
003FFFE0
007FFFE0
00FFFFE0
01FFDFE0
03FF9FE0
07FF0FE0
0FFE0FE0
1FFC0FE0
3FF807E0
7FF007E0
FFE007E0
FFC003E0
7F800180
3F000000
1E000000
0C000000
ENDCHAR
STARTCHAR 006B
ENCODING 107
SWIDTH 972 0
DWIDTH 27 0
BBX 27 24 0 -3
BITMAP
00010000
00010000
00018000
0001C000
0001E000
0001F000
007FF800
03FFFC00
07FFFE00
1FFFFF00
1FFFFF80
3FFFFFC0
7FFFFFE0
7F83FF80
7E03FF00
7807FC00
F007F000
E007C000
E0078000
C0060000
C0080000
80000000
80000000
80000000
ENDCHAR
STARTCHAR 006C
ENCODING 108
SWIDTH 1080 0
DWIDTH 30 0
BBX 30 26 0 -4
BITMAP
00040000
00080000
00180000
00380000
00780000
00F80000
01F80000
03FFFC00
07FFFF00
0FFFFFC0
1FFFFFE0
3FFFFFE0
7FFFFFF0
FFFFFFF8
3FFE1FF8
0FFE03F8
07FE00F8
01FE007C
007F003C
001F001C
000F001C
0003000C
0000800C
00000004
00000004
00000004
ENDCHAR
STARTCHAR 006D
ENCODING 109
SWIDTH 972 0
DWIDTH 27 0
BBX 24 29 2 -6
BITMAP
01FF00
01FF00
01FF00
01FF00
01FF00
01FF00
01FF00
01FF00
01FF00
01FF00
01FF00
01FF00
01FF00
01FF00
01FF00
01FF01
FFFFFE
3FFFFC
3FFFF8
1FFFF0
0FFFE0
07FFC0
03FF80
01FF00
00FE00
007C00
003C00
001800
001000
ENDCHAR
STARTCHAR 006E
ENCODING 110
SWIDTH 972 0
DWIDTH 27 0
BBX 27 22 0 -2
BITMAP
00100000
00100000
00700000
00F00000
01F00000
03F00000
07FFFFE0
0FFFFFE0
1FFFFFE0
3FFFFFE0
7FFFFFE0
FFFFFFE0
3FFFFFE0
1FFFFFE0
0FFFFFE0
07F00000
03F00000
01F00000
00F00000
00700000
00300000
00100000
ENDCHAR
STARTCHAR 006F
ENCODING 111
SWIDTH 972 0
DWIDTH 27 0
BBX 27 22 0 -2
BITMAP
00010000
00018000
0001C000
0001E000
0001F000
0001F800
FFFFFC00
FFFFFE00
FFFFFF00
FFFFFF80
FFFFFFC0
FFFFFFE0
FFFFFFC0
FFFFFF00
FFFFFE00
0001FC00
0001F800
0001F000
0001E000
0001C000
00018000
00010000
ENDCHAR
STARTCHAR 0070
ENCODING 112
SWIDTH 972 0
DWIDTH 27 0
BBX 24 28 2 -5
BITMAP
001000
003800
007C00
00FE00
01FF00
03FF80
03FFC0
07FFE0
0FFFF0
1FFFF8
3FFFFC
7FFFFC
FFFFFF
01FF00
01FF00
01FF00
01FF00
01FF00
01FF00
01FF00
01FF00
01FF00
01FF00
01FF00
01FF00
01FF00
01FF00
01FF00
ENDCHAR
STARTCHAR 0071
ENCODING 113
SWIDTH 972 0
DWIDTH 27 0
BBX 25 28 1 -5
BITMAP
00004000
0000C000
0000E000
0001E000
0001F000
0003F800
0007F800
F807FC00
F80FFC00
F80FFE00
F81FFE00
F83FFF00
F83FFF80
F801E000
F801E000
F801E000
F801E000
F801E000
F801E000
F801E000
7801E000
7C03E000
7C07E000
3F0FC000
3FFFC000
1FFF8000
0FFF0000
03FC0000
ENDCHAR
STARTCHAR 0072
ENCODING 114
SWIDTH 972 0
DWIDTH 27 0
BBX 27 23 0 -3
BITMAP
00180000
00780000
00F80000
03F80000
0FF80000
1FFFFC00
FFFFFE00
7FFFFF80
1FFFFF80
07F80FC0
03F803E0
00F803E0
003801E0
000801E0
000001E0
000003E0
000003E0
000007C0
01FFFFC0
01FFFF80
01FFFF00
01FFFE00
01FFE000
ENDCHAR
STARTCHAR 0073
ENCODING 115
SWIDTH 972 0
DWIDTH 27 0
BBX 27 21 0 -2
BITMAP
00FFE000
03FFFC00
0FFFFE00
1FFFFF80
3FFFFFC0
7FFFFFC0
7FFFFFE0
FFFFFFE0
FFFFFFE0
FFFFFFE0
FFFFFFE0
7FFFFFC0
7FFFFFC0
3FFFFF80
1FFFFF00
07FFFC00
01FFF000
003F0000
00380000
00700000
01800000
ENDCHAR
STARTCHAR 0074
ENCODING 116
SWIDTH 972 0
DWIDTH 27 0
BBX 27 23 0 -3
BITMAP
7FFFFFE0
FFFFFFE0
FFFFFFE0
FFFFFFE0
FFFFFFE0
FFFFFFE0
FFFFFFE0
FFFFFFE0
FFFFFFE0
FFFFFFE0
FFFFFFE0
FFFFFFE0
FFFFFFE0
FFFFFFE0
FFFFFFE0
FFFFFFE0
7FFFFFE0
001E0000
001C0000
00180000
00300000
00200000
00400000
ENDCHAR
STARTCHAR 0075
ENCODING 117
SWIDTH 972 0
DWIDTH 27 0
BBX 27 21 0 -2
BITMAP
00FFF000
07FFFC00
0FFFFF00
3FFFFF80
3FFFFFC0
7FFFFFC0
FFFFFFE0
FFFFFFE0
FFFFFFE0
FFFFFFE0
FFFFFFE0
7FFFFFC0
7FFFFFC0
3FFFFF80
1FFFFF00
07FFFC00
01FFF000
000FC000
0001C000
0000E000
00001000
ENDCHAR
STARTCHAR 0076
ENCODING 118
SWIDTH 972 0
DWIDTH 27 0
BBX 27 23 0 -3
BITMAP
7FFFFFE0
FFFFFFE0
FFFFFFE0
FFFFFFE0
FFFFFFE0
FFFFFFE0
FFFFFFE0
FFFFFFE0
FFFFFFE0
FFFFFFE0
FFFFFFE0
FFFFFFE0
FFFFFFE0
FFFFFFE0
FFFFFFE0
FFFFFFE0
FFFFFFE0
000F0000
00070000
00038000
00008000
00004000
00004000
ENDCHAR
STARTCHAR 0077
ENCODING 119
SWIDTH 972 0
DWIDTH 27 0
BBX 27 27 0 -5
BITMAP
000F0000
001F0000
001F0000
0F1F0E00
0FFFDF00
1FFFFF00
0FFFFF00
0FFFFE00
07FFFC00
0FE0FC00
1FC07F00
7FC03FE0
FF803FE0
FF803FE0
7FC03FE0
3FC07F80
0FE0FC00
07FFFC00
07FFFE00
0FFFFF00
1FFFFF00
1FFFBF00
0F1F1E00
001F0000
001F0000
000F0000
00040000
ENDCHAR
STARTCHAR 0078
ENCODING 120
SWIDTH 972 0
DWIDTH 27 0
BBX 27 22 0 -2
BITMAP
13000000
3F000000
1FE00000
FBC00000
F1C18000
31E3CE00
71E3EF00
7F83FE00
4FBFFE00
1DBFFE40
083F9FE0
001F0FE0
001E07E0
003E0700
007E0700
007F0FC0
003FFFC0
0007FFC0
0007F8C0
000FFC00
00073C00
00023800
ENDCHAR
STARTCHAR 0079
ENCODING 121
SWIDTH 972 0
DWIDTH 27 0
BBX 27 24 0 -3
BITMAP
00780000
01FE0F00
03FF9FC0
07E03C00
0FE03E60
0FE03FC0
1FF07F80
7CF87F00
F83CFE00
781FFE00
180FE000
0007C000
001FC000
003FE000
007EF800
00FCFC00
01F87E00
07F03F00
0FE01F80
1FC00FC0
3F8007E0
3F0003E0
3E0001C0
08000100
ENDCHAR
STARTCHAR 007A
ENCODING 122
SWIDTH 972 0
DWIDTH 27 0
BBX 27 27 0 -5
BITMAP
00008000
00010000
00030000
00070000
000F0000
000E0000
000E0000
000E0000
000E0000
001E0000
001C0060
0E1C0FC0
3F9DFF80
7FFFFF00
F1FFF800
E1FF8000
FFF80000
7FBC0000
3E7E0000
00FE0000
00E60000
01C60000
01CE0000
01FE0000
00FC0000
00F80000
00200000
ENDCHAR
STARTCHAR 007B
ENCODING 123
SWIDTH 972 0
DWIDTH 27 0
BBX 27 26 0 -4
BITMAP
00003E00
00003C00
00001E00
00001F00
00001780
00000380
000001C0
000000C0
000000E0
000000E0
00000060
00000060
E0000060
E0000060
E00000E0
600000E0
600000C0
700001C0
300001C0
38000380
1C000700
0E000F00
07803C00
03FFF800
00FFE000
001F0000
ENDCHAR
STARTCHAR 007C
ENCODING 124
SWIDTH 972 0
DWIDTH 27 0
BBX 27 26 0 -4
BITMAP
0F800000
03800000
07800000
0F000000
1D000000
38000000
30000000
70000000
60000000
E0000000
E0000000
E0000000
E0000060
E0000060
E0000060
600000E0
600000C0
700001C0
300001C0
38000380
1C000700
0E000F00
07803E00
03FFF800
00FFF000
003F8000
ENDCHAR
STARTCHAR 007D
ENCODING 125
SWIDTH 504 0
DWIDTH 14 0
BBX 0 0 0 0
BITMAP
ENDCHAR
STARTCHAR 007E
ENCODING 126
SWIDTH 504 0
DWIDTH 14 0
BBX 0 0 0 0
BITMAP
ENDCHAR
STARTCHAR 00A0
ENCODING 160
SWIDTH 252 0
DWIDTH 7 0
BBX 0 0 0 0
BITMAP
ENDCHAR
STARTCHAR 00A1
ENCODING 161
SWIDTH 324 0
DWIDTH 9 0
BBX 0 0 0 0
BITMAP
ENDCHAR
STARTCHAR 00A2
ENCODING 162
SWIDTH 576 0
DWIDTH 16 0
BBX 0 0 0 0
BITMAP
ENDCHAR
STARTCHAR 00A3
ENCODING 163
SWIDTH 504 0
DWIDTH 14 0
BBX 0 0 0 0
BITMAP
ENDCHAR
STARTCHAR 00A4
ENCODING 164
SWIDTH 504 0
DWIDTH 14 0
BBX 0 0 0 0
BITMAP
ENDCHAR
STARTCHAR 00A5
ENCODING 165
SWIDTH 612 0
DWIDTH 17 0
BBX 0 0 0 0
BITMAP
ENDCHAR
STARTCHAR 00A6
ENCODING 166
SWIDTH 504 0
DWIDTH 14 0
BBX 0 0 0 0
BITMAP
ENDCHAR
STARTCHAR 00A7
ENCODING 167
SWIDTH 504 0
DWIDTH 14 0
BBX 0 0 0 0
BITMAP
ENDCHAR
STARTCHAR 00A8
ENCODING 168
SWIDTH 504 0
DWIDTH 14 0
BBX 0 0 0 0
BITMAP
ENDCHAR
STARTCHAR 00A9
ENCODING 169
SWIDTH 828 0
DWIDTH 23 0
BBX 0 0 0 0
BITMAP
ENDCHAR
STARTCHAR 00AA
ENCODING 170
SWIDTH 324 0
DWIDTH 9 0
BBX 0 0 0 0
BITMAP
ENDCHAR
STARTCHAR 00AB
ENCODING 171
SWIDTH 468 0
DWIDTH 13 0
BBX 0 0 0 0
BITMAP
ENDCHAR
STARTCHAR 00AC
ENCODING 172
SWIDTH 504 0
DWIDTH 14 0
BBX 0 0 0 0
BITMAP
ENDCHAR
STARTCHAR 00AD
ENCODING 173
SWIDTH 972 0
DWIDTH 27 0
BBX 27 27 0 -5
BITMAP
007FC000
01F1F800
07801C00
0E000E00
1C000300
1E006180
3300E180
6181E0C0
60C1E0C0
4023E060
C07FE060
C07FE060
C07FE060
C07FE060
C07FE060
C07FE060
4007E060
6003E040
6001F0C0
3000E9C0
38006D80
18000700
0E000600
07001C00
03E0F800
00FFE000
000C0000
ENDCHAR
STARTCHAR 00AE
ENCODING 174
SWIDTH 828 0
DWIDTH 23 0
BBX 0 0 0 0
BITMAP
ENDCHAR
STARTCHAR 00AF
ENCODING 175
SWIDTH 324 0
DWIDTH 9 0
BBX 0 0 0 0
BITMAP
ENDCHAR
STARTCHAR 00B0
ENCODING 176
SWIDTH 324 0
DWIDTH 9 0
BBX 0 0 0 0
BITMAP
ENDCHAR
STARTCHAR 00B1
ENCODING 177
SWIDTH 504 0
DWIDTH 14 0
BBX 0 0 0 0
BITMAP
ENDCHAR
STARTCHAR 00B2
ENCODING 178
SWIDTH 504 0
DWIDTH 14 0
BBX 0 0 0 0
BITMAP
ENDCHAR
STARTCHAR 00B3
ENCODING 179
SWIDTH 504 0
DWIDTH 14 0
BBX 0 0 0 0
BITMAP
ENDCHAR
STARTCHAR 00B4
ENCODING 180
SWIDTH 504 0
DWIDTH 14 0
BBX 0 0 0 0
BITMAP
ENDCHAR
STARTCHAR 00B5
ENCODING 181
SWIDTH 576 0
DWIDTH 16 0
BBX 0 0 0 0
BITMAP
ENDCHAR
STARTCHAR 00B6
ENCODING 182
SWIDTH 504 0
DWIDTH 14 0
BBX 0 0 0 0
BITMAP
ENDCHAR
STARTCHAR 00B7
ENCODING 183
SWIDTH 252 0
DWIDTH 7 0
BBX 0 0 0 0
BITMAP
ENDCHAR
STARTCHAR 00B8
ENCODING 184
SWIDTH 504 0
DWIDTH 14 0
BBX 0 0 0 0
BITMAP
ENDCHAR
STARTCHAR 00B9
ENCODING 185
SWIDTH 504 0
DWIDTH 14 0
BBX 0 0 0 0
BITMAP
ENDCHAR
STARTCHAR 00BA
ENCODING 186
SWIDTH 360 0
DWIDTH 10 0
BBX 0 0 0 0
BITMAP
ENDCHAR
STARTCHAR 00BB
ENCODING 187
SWIDTH 468 0
DWIDTH 13 0
BBX 0 0 0 0
BITMAP
ENDCHAR
STARTCHAR 00BC
ENCODING 188
SWIDTH 828 0
DWIDTH 23 0
BBX 0 0 0 0
BITMAP
ENDCHAR
STARTCHAR 00BD
ENCODING 189
SWIDTH 972 0
DWIDTH 27 0
BBX 0 0 0 0
BITMAP
ENDCHAR
STARTCHAR 00BE
ENCODING 190
SWIDTH 828 0
DWIDTH 23 0
BBX 0 0 0 0
BITMAP
ENDCHAR
STARTCHAR 00BF
ENCODING 191
SWIDTH 360 0
DWIDTH 10 0
BBX 0 0 0 0
BITMAP
ENDCHAR
STARTCHAR 00C0
ENCODING 192
SWIDTH 756 0
DWIDTH 21 0
BBX 0 0 0 0
BITMAP
ENDCHAR
STARTCHAR 00C1
ENCODING 193
SWIDTH 756 0
DWIDTH 21 0
BBX 0 0 0 0
BITMAP
ENDCHAR
STARTCHAR 00C2
ENCODING 194
SWIDTH 756 0
DWIDTH 21 0
BBX 0 0 0 0
BITMAP
ENDCHAR
STARTCHAR 00C3
ENCODING 195
SWIDTH 756 0
DWIDTH 21 0
BBX 0 0 0 0
BITMAP
ENDCHAR
STARTCHAR 00C4
ENCODING 196
SWIDTH 756 0
DWIDTH 21 0
BBX 0 0 0 0
BITMAP
ENDCHAR
STARTCHAR 00C5
ENCODING 197
SWIDTH 756 0
DWIDTH 21 0
BBX 0 0 0 0
BITMAP
ENDCHAR
STARTCHAR 00C6
ENCODING 198
SWIDTH 1044 0
DWIDTH 29 0
BBX 0 0 0 0
BITMAP
ENDCHAR
STARTCHAR 00C7
ENCODING 199
SWIDTH 684 0
DWIDTH 19 0
BBX 0 0 0 0
BITMAP
ENDCHAR
STARTCHAR 00C8
ENCODING 200
SWIDTH 576 0
DWIDTH 16 0
BBX 0 0 0 0
BITMAP
ENDCHAR
STARTCHAR 00C9
ENCODING 201
SWIDTH 576 0
DWIDTH 16 0
BBX 0 0 0 0
BITMAP
ENDCHAR
STARTCHAR 00CA
ENCODING 202
SWIDTH 576 0
DWIDTH 16 0
BBX 0 0 0 0
BITMAP
ENDCHAR
STARTCHAR 00CB
ENCODING 203
SWIDTH 576 0
DWIDTH 16 0
BBX 0 0 0 0
BITMAP
ENDCHAR
STARTCHAR 00CC
ENCODING 204
SWIDTH 324 0
DWIDTH 9 0
BBX 0 0 0 0
BITMAP
ENDCHAR
STARTCHAR 00CD
ENCODING 205
SWIDTH 324 0
DWIDTH 9 0
BBX 0 0 0 0
BITMAP
ENDCHAR
STARTCHAR 00CE
ENCODING 206
SWIDTH 324 0
DWIDTH 9 0
BBX 0 0 0 0
BITMAP
ENDCHAR
STARTCHAR 00CF
ENCODING 207
SWIDTH 324 0
DWIDTH 9 0
BBX 0 0 0 0
BITMAP
ENDCHAR
STARTCHAR 00D0
ENCODING 208
SWIDTH 756 0
DWIDTH 21 0
BBX 0 0 0 0
BITMAP
ENDCHAR
STARTCHAR 00D1
ENCODING 209
SWIDTH 756 0
DWIDTH 21 0
BBX 0 0 0 0
BITMAP
ENDCHAR
STARTCHAR 00D2
ENCODING 210
SWIDTH 792 0
DWIDTH 22 0
BBX 0 0 0 0
BITMAP
ENDCHAR
STARTCHAR 00D3
ENCODING 211
SWIDTH 792 0
DWIDTH 22 0
BBX 0 0 0 0
BITMAP
ENDCHAR
STARTCHAR 00D4
ENCODING 212
SWIDTH 792 0
DWIDTH 22 0
BBX 0 0 0 0
BITMAP
ENDCHAR
STARTCHAR 00D5
ENCODING 213
SWIDTH 792 0
DWIDTH 22 0
BBX 0 0 0 0
BITMAP
ENDCHAR
STARTCHAR 00D6
ENCODING 214
SWIDTH 792 0
DWIDTH 22 0
BBX 0 0 0 0
BITMAP
ENDCHAR
STARTCHAR 00D7
ENCODING 215
SWIDTH 504 0
DWIDTH 14 0
BBX 0 0 0 0
BITMAP
ENDCHAR
STARTCHAR 00D8
ENCODING 216
SWIDTH 792 0
DWIDTH 22 0
BBX 0 0 0 0
BITMAP
ENDCHAR
STARTCHAR 00D9
ENCODING 217
SWIDTH 756 0
DWIDTH 21 0
BBX 0 0 0 0
BITMAP
ENDCHAR
STARTCHAR 00DA
ENCODING 218
SWIDTH 756 0
DWIDTH 21 0
BBX 0 0 0 0
BITMAP
ENDCHAR
STARTCHAR 00DB
ENCODING 219
SWIDTH 756 0
DWIDTH 21 0
BBX 0 0 0 0
BITMAP
ENDCHAR
STARTCHAR 00DC
ENCODING 220
SWIDTH 756 0
DWIDTH 21 0
BBX 0 0 0 0
BITMAP
ENDCHAR
STARTCHAR 00DD
ENCODING 221
SWIDTH 612 0
DWIDTH 17 0
BBX 0 0 0 0
BITMAP
ENDCHAR
STARTCHAR 00DE
ENCODING 222
SWIDTH 540 0
DWIDTH 15 0
BBX 0 0 0 0
BITMAP
ENDCHAR
STARTCHAR 00DF
ENCODING 223
SWIDTH 612 0
DWIDTH 17 0
BBX 0 0 0 0
BITMAP
ENDCHAR
STARTCHAR 00E0
ENCODING 224
SWIDTH 468 0
DWIDTH 13 0
BBX 0 0 0 0
BITMAP
ENDCHAR
STARTCHAR 00E1
ENCODING 225
SWIDTH 468 0
DWIDTH 13 0
BBX 0 0 0 0
BITMAP
ENDCHAR
STARTCHAR 00E2
ENCODING 226
SWIDTH 468 0
DWIDTH 13 0
BBX 0 0 0 0
BITMAP
ENDCHAR
STARTCHAR 00E3
ENCODING 227
SWIDTH 468 0
DWIDTH 13 0
BBX 0 0 0 0
BITMAP
ENDCHAR
STARTCHAR 00E4
ENCODING 228
SWIDTH 468 0
DWIDTH 13 0
BBX 0 0 0 0
BITMAP
ENDCHAR
STARTCHAR 00E5
ENCODING 229
SWIDTH 468 0
DWIDTH 13 0
BBX 0 0 0 0
BITMAP
ENDCHAR
STARTCHAR 00E6
ENCODING 230
SWIDTH 720 0
DWIDTH 20 0
BBX 0 0 0 0
BITMAP
ENDCHAR
STARTCHAR 00E7
ENCODING 231
SWIDTH 432 0
DWIDTH 12 0
BBX 0 0 0 0
BITMAP
ENDCHAR
STARTCHAR 00E8
ENCODING 232
SWIDTH 432 0
DWIDTH 12 0
BBX 0 0 0 0
BITMAP
ENDCHAR
STARTCHAR 00E9
ENCODING 233
SWIDTH 432 0
DWIDTH 12 0
BBX 0 0 0 0
BITMAP
ENDCHAR
STARTCHAR 00EA
ENCODING 234
SWIDTH 432 0
DWIDTH 12 0
BBX 0 0 0 0
BITMAP
ENDCHAR
STARTCHAR 00EB
ENCODING 235
SWIDTH 432 0
DWIDTH 12 0
BBX 0 0 0 0
BITMAP
ENDCHAR
STARTCHAR 00EC
ENCODING 236
SWIDTH 252 0
DWIDTH 7 0
BBX 0 0 0 0
BITMAP
ENDCHAR
STARTCHAR 00ED
ENCODING 237
SWIDTH 252 0
DWIDTH 7 0
BBX 0 0 0 0
BITMAP
ENDCHAR
STARTCHAR 00EE
ENCODING 238
SWIDTH 252 0
DWIDTH 7 0
BBX 0 0 0 0
BITMAP
ENDCHAR
STARTCHAR 00EF
ENCODING 239
SWIDTH 252 0
DWIDTH 7 0
BBX 0 0 0 0
BITMAP
ENDCHAR
STARTCHAR 00F0
ENCODING 240
SWIDTH 576 0
DWIDTH 16 0
BBX 0 0 0 0
BITMAP
ENDCHAR
STARTCHAR 00F1
ENCODING 241
SWIDTH 540 0
DWIDTH 15 0
BBX 0 0 0 0
BITMAP
ENDCHAR
STARTCHAR 00F2
ENCODING 242
SWIDTH 504 0
DWIDTH 14 0
BBX 0 0 0 0
BITMAP
ENDCHAR
STARTCHAR 00F3
ENCODING 243
SWIDTH 504 0
DWIDTH 14 0
BBX 0 0 0 0
BITMAP
ENDCHAR
STARTCHAR 00F4
ENCODING 244
SWIDTH 504 0
DWIDTH 14 0
BBX 0 0 0 0
BITMAP
ENDCHAR
STARTCHAR 00F5
ENCODING 245
SWIDTH 504 0
DWIDTH 14 0
BBX 0 0 0 0
BITMAP
ENDCHAR
STARTCHAR 00F6
ENCODING 246
SWIDTH 504 0
DWIDTH 14 0
BBX 0 0 0 0
BITMAP
ENDCHAR
STARTCHAR 00F7
ENCODING 247
SWIDTH 504 0
DWIDTH 14 0
BBX 0 0 0 0
BITMAP
ENDCHAR
STARTCHAR 00F8
ENCODING 248
SWIDTH 504 0
DWIDTH 14 0
BBX 0 0 0 0
BITMAP
ENDCHAR
STARTCHAR 00F9
ENCODING 249
SWIDTH 504 0
DWIDTH 14 0
BBX 0 0 0 0
BITMAP
ENDCHAR
STARTCHAR 00FA
ENCODING 250
SWIDTH 504 0
DWIDTH 14 0
BBX 0 0 0 0
BITMAP
ENDCHAR
STARTCHAR 00FB
ENCODING 251
SWIDTH 504 0
DWIDTH 14 0
BBX 0 0 0 0
BITMAP
ENDCHAR
STARTCHAR 00FC
ENCODING 252
SWIDTH 504 0
DWIDTH 14 0
BBX 0 0 0 0
BITMAP
ENDCHAR
STARTCHAR 00FD
ENCODING 253
SWIDTH 432 0
DWIDTH 12 0
BBX 0 0 0 0
BITMAP
ENDCHAR
STARTCHAR 00FE
ENCODING 254
SWIDTH 504 0
DWIDTH 14 0
BBX 0 0 0 0
BITMAP
ENDCHAR
STARTCHAR 00FF
ENCODING 255
SWIDTH 432 0
DWIDTH 12 0
BBX 0 0 0 0
BITMAP
ENDCHAR
STARTCHAR 0131
ENCODING 305
SWIDTH 252 0
DWIDTH 7 0
BBX 0 0 0 0
BITMAP
ENDCHAR
STARTCHAR 02C6
ENCODING 710
SWIDTH 504 0
DWIDTH 14 0
BBX 0 0 0 0
BITMAP
ENDCHAR
STARTCHAR 02C7
ENCODING 711
SWIDTH 504 0
DWIDTH 14 0
BBX 0 0 0 0
BITMAP
ENDCHAR
STARTCHAR 02C9
ENCODING 713
SWIDTH 504 0
DWIDTH 14 0
BBX 0 0 0 0
BITMAP
ENDCHAR
STARTCHAR 02D8
ENCODING 728
SWIDTH 504 0
DWIDTH 14 0
BBX 0 0 0 0
BITMAP
ENDCHAR
STARTCHAR 02D9
ENCODING 729
SWIDTH 504 0
DWIDTH 14 0
BBX 0 0 0 0
BITMAP
ENDCHAR
STARTCHAR 02DA
ENCODING 730
SWIDTH 504 0
DWIDTH 14 0
BBX 0 0 0 0
BITMAP
ENDCHAR
STARTCHAR 02DB
ENCODING 731
SWIDTH 504 0
DWIDTH 14 0
BBX 0 0 0 0
BITMAP
ENDCHAR
STARTCHAR 02DC
ENCODING 732
SWIDTH 504 0
DWIDTH 14 0
BBX 0 0 0 0
BITMAP
ENDCHAR
STARTCHAR 02DD
ENCODING 733
SWIDTH 504 0
DWIDTH 14 0
BBX 0 0 0 0
BITMAP
ENDCHAR
STARTCHAR 037E
ENCODING 894
SWIDTH 972 0
DWIDTH 27 0
BBX 27 27 0 -5
BITMAP
00060000
00060000
00060000
00060000
00060000
00060000
00060000
00060000
00060000
00060000
00060000
00060000
FFFFFFE0
FFFFFFE0
00060000
00060000
00060000
00060000
00060000
00060000
00060000
00060000
00060000
00060000
00060000
00060000
00060000
ENDCHAR
STARTCHAR 2013
ENCODING 8211
SWIDTH 540 0
DWIDTH 15 0
BBX 0 0 0 0
BITMAP
ENDCHAR
STARTCHAR 2014
ENCODING 8212
SWIDTH 1008 0
DWIDTH 28 0
BBX 0 0 0 0
BITMAP
ENDCHAR
STARTCHAR 2018
ENCODING 8216
SWIDTH 288 0
DWIDTH 8 0
BBX 0 0 0 0
BITMAP
ENDCHAR
STARTCHAR 2019
ENCODING 8217
SWIDTH 288 0
DWIDTH 8 0
BBX 0 0 0 0
BITMAP
ENDCHAR
STARTCHAR 201A
ENCODING 8218
SWIDTH 288 0
DWIDTH 8 0
BBX 0 0 0 0
BITMAP
ENDCHAR
STARTCHAR 201C
ENCODING 8220
SWIDTH 432 0
DWIDTH 12 0
BBX 0 0 0 0
BITMAP
ENDCHAR
STARTCHAR 201D
ENCODING 8221
SWIDTH 432 0
DWIDTH 12 0
BBX 0 0 0 0
BITMAP
ENDCHAR
STARTCHAR 201E
ENCODING 8222
SWIDTH 432 0
DWIDTH 12 0
BBX 0 0 0 0
BITMAP
ENDCHAR
STARTCHAR 2020
ENCODING 8224
SWIDTH 504 0
DWIDTH 14 0
BBX 0 0 0 0
BITMAP
ENDCHAR
STARTCHAR 2021
ENCODING 8225
SWIDTH 504 0
DWIDTH 14 0
BBX 0 0 0 0
BITMAP
ENDCHAR
STARTCHAR 2022
ENCODING 8226
SWIDTH 504 0
DWIDTH 14 0
BBX 0 0 0 0
BITMAP
ENDCHAR
STARTCHAR 2026
ENCODING 8230
SWIDTH 1008 0
DWIDTH 28 0
BBX 0 0 0 0
BITMAP
ENDCHAR
STARTCHAR 2039
ENCODING 8249
SWIDTH 324 0
DWIDTH 9 0
BBX 0 0 0 0
BITMAP
ENDCHAR
STARTCHAR 203A
ENCODING 8250
SWIDTH 324 0
DWIDTH 9 0
BBX 0 0 0 0
BITMAP
ENDCHAR
STARTCHAR 2044
ENCODING 8260
SWIDTH 180 0
DWIDTH 5 0
BBX 0 0 0 0
BITMAP
ENDCHAR
STARTCHAR 20A3
ENCODING 8355
SWIDTH 504 0
DWIDTH 14 0
BBX 0 0 0 0
BITMAP
ENDCHAR
STARTCHAR 20A4
ENCODING 8356
SWIDTH 504 0
DWIDTH 14 0
BBX 0 0 0 0
BITMAP
ENDCHAR
STARTCHAR 20A7
ENCODING 8359
SWIDTH 1008 0
DWIDTH 28 0
BBX 0 0 0 0
BITMAP
ENDCHAR
STARTCHAR 20AC
ENCODING 8364
SWIDTH 504 0
DWIDTH 14 0
BBX 0 0 0 0
BITMAP
ENDCHAR
STARTCHAR 2116
ENCODING 8470
SWIDTH 1116 0
DWIDTH 31 0
BBX 0 0 0 0
BITMAP
ENDCHAR
STARTCHAR 2122
ENCODING 8482
SWIDTH 720 0
DWIDTH 20 0
BBX 0 0 0 0
BITMAP
ENDCHAR
STARTCHAR 2202
ENCODING 8706
SWIDTH 504 0
DWIDTH 14 0
BBX 0 0 0 0
BITMAP
ENDCHAR
STARTCHAR 2206
ENCODING 8710
SWIDTH 540 0
DWIDTH 15 0
BBX 0 0 0 0
BITMAP
ENDCHAR
STARTCHAR 220F
ENCODING 8719
SWIDTH 756 0
DWIDTH 21 0
BBX 0 0 0 0
BITMAP
ENDCHAR
STARTCHAR 2211
ENCODING 8721
SWIDTH 576 0
DWIDTH 16 0
BBX 0 0 0 0
BITMAP
ENDCHAR
STARTCHAR 2212
ENCODING 8722
SWIDTH 504 0
DWIDTH 14 0
BBX 0 0 0 0
BITMAP
ENDCHAR
STARTCHAR 2215
ENCODING 8725
SWIDTH 180 0
DWIDTH 5 0
BBX 0 0 0 0
BITMAP
ENDCHAR
STARTCHAR 2219
ENCODING 8729
SWIDTH 252 0
DWIDTH 7 0
BBX 0 0 0 0
BITMAP
ENDCHAR
STARTCHAR 221A
ENCODING 8730
SWIDTH 504 0
DWIDTH 14 0
BBX 0 0 0 0
BITMAP
ENDCHAR
STARTCHAR 221E
ENCODING 8734
SWIDTH 504 0
DWIDTH 14 0
BBX 0 0 0 0
BITMAP
ENDCHAR
STARTCHAR 222B
ENCODING 8747
SWIDTH 324 0
DWIDTH 9 0
BBX 0 0 0 0
BITMAP
ENDCHAR
STARTCHAR 2248
ENCODING 8776
SWIDTH 504 0
DWIDTH 14 0
BBX 0 0 0 0
BITMAP
ENDCHAR
STARTCHAR 2264
ENCODING 8804
SWIDTH 504 0
DWIDTH 14 0
BBX 0 0 0 0
BITMAP
ENDCHAR
STARTCHAR 2265
ENCODING 8805
SWIDTH 504 0
DWIDTH 14 0
BBX 0 0 0 0
BITMAP
ENDCHAR
STARTCHAR F001
ENCODING 61441
SWIDTH 540 0
DWIDTH 15 0
BBX 0 0 0 0
BITMAP
ENDCHAR
STARTCHAR F002
ENCODING 61442
SWIDTH 540 0
DWIDTH 15 0
BBX 0 0 0 0
BITMAP
ENDCHAR
STARTCHAR FB01
ENCODING 64257
SWIDTH 540 0
DWIDTH 15 0
BBX 0 0 0 0
BITMAP
ENDCHAR
STARTCHAR FB02
ENCODING 64258
SWIDTH 540 0
DWIDTH 15 0
BBX 0 0 0 0
BITMAP
ENDCHAR
ENDFONT
